<svg width="84" height="85" xmlns="http://www.w3.org/2000/svg">

 <g>
  <title>Layer 1</title>
  <path id="svg_21" d="m47.61203,55.80944l-2.23778,-7.97841c0.6558,-0.586 1.27133,-1.21302 1.85235,-1.88399l7.82647,2.27955c0.8255,-1.22474 1.53595,-2.52567 2.17162,-3.8764l-5.82455,-5.74281c0.279,-0.84384 0.52061,-1.70233 0.69319,-2.5872l7.84948,-2.00413c0.05753,-0.73836 0.11218,-1.47965 0.11218,-2.2356s-0.05753,-1.4943 -0.11218,-2.23267l-7.84948,-2.00413c-0.17546,-0.88486 -0.41707,-1.74335 -0.69319,-2.5872l5.82742,-5.74281c-0.63854,-1.3478 -1.34899,-2.65166 -2.1745,-3.8764l-7.82647,2.27662c-0.57814,-0.66804 -1.19655,-1.29506 -1.85235,-1.88399l2.23778,-7.97548c-1.2023,-0.83798 -2.48226,-1.56462 -3.80825,-2.21216l-5.63759,5.93619c-0.8255,-0.28421 -1.67114,-0.5274 -2.53979,-0.70613l-1.96453,-7.99892c-0.72771,-0.05567 -1.45254,-0.11427 -2.19463,-0.11427s-1.46692,0.0586 -2.19176,0.11427l-1.9674,7.99892c-0.86865,0.17873 -1.71141,0.42192 -2.53979,0.70613l-5.63759,-5.93619c-1.32311,0.65632 -2.60019,1.38003 -3.80249,2.22095l2.23778,7.97548c-0.6558,0.586 -1.27421,1.21595 -1.84947,1.88106l-7.82934,-2.27955c-0.8255,1.22474 -1.53595,2.5286 -2.17162,3.87933l5.82742,5.74281c-0.27613,0.84384 -0.51774,1.70233 -0.69319,2.5872l-7.85235,2.00413c-0.05465,0.73836 -0.11218,1.47965 -0.11218,2.23267s0.05753,1.4943 0.11218,2.2356l7.85235,2.00413c0.17546,0.88486 0.41707,1.74335 0.69319,2.5872l-5.82742,5.74281c0.63567,1.3478 1.34612,2.65166 2.17162,3.8764l7.82934,-2.27955c0.57526,0.67097 1.19367,1.29506 1.84947,1.88399l-2.23778,7.97841c1.2023,0.83798 2.48226,1.56169 3.80537,2.21216l5.63759,-5.93619c0.82838,0.28421 1.67114,0.53033 2.53979,0.70613l1.9674,7.99599c0.72483,0.0586 1.45254,0.11427 2.19463,0.11427s1.46692,-0.0586 2.19463,-0.11427l1.96453,-7.99599c0.86865,-0.17873 1.71429,-0.42485 2.53979,-0.70613l5.63759,5.93619c1.32023,-0.65632 2.60019,-1.38003 3.80249,-2.21802zm-16.14191,-14.06697c-5.39885,0 -9.77661,-4.45947 -9.77661,-9.95909s4.37776,-9.95616 9.77661,-9.95616s9.77373,4.45654 9.77373,9.95616s-4.37488,9.95909 -9.77373,9.95909zm44.55994,20.8177c0.05465,-1.60271 -0.17258,-3.23473 -0.66155,-4.84623l3.57814,-5.1949c-0.54075,-1.0255 -1.15053,-1.99827 -1.84372,-2.88313l-6.10355,1.30385c-1.23106,-1.06652 -2.63183,-1.89864 -4.1304,-2.49344l-1.75743,-6.09149c-1.11026,-0.19924 -2.2349,-0.30765 -3.37392,-0.31058l-2.80154,5.67249c-0.80249,0.15822 -1.60499,0.37504 -2.3931,0.68269c-0.73921,0.28714 -1.42953,0.6446 -2.09108,1.03429l-5.7699,-2.39968c-0.85427,0.76766 -1.63375,1.59685 -2.33845,2.49637l2.60882,5.76625c-0.74497,1.45035 -1.25695,3.01205 -1.49281,4.64406l-5.43912,3.10581c0.05465,1.13684 0.2186,2.27369 0.47172,3.41346l6.05178,1.52067c0.66443,1.53532 1.55609,2.9095 2.63471,4.0815l-1.01246,6.26436c0.92042,0.6739 1.89837,1.25404 2.91371,1.758l4.93289,-3.86761c1.54171,0.41313 3.15532,0.57135 4.78044,0.4395l4.17642,4.70852c0.57526,-0.16701 1.14765,-0.34574 1.71429,-0.56549c0.50336,-0.19338 0.97795,-0.42192 1.45254,-0.65339l0.10642,-6.34347c1.30873,-0.99327 2.42474,-2.18872 3.31352,-3.53359l6.21573,-0.39262c0.4372,-1.05187 0.80249,-2.14477 1.05849,-3.26696l-4.80058,-4.04927zm-11.97412,5.88052c-3.45446,1.34194 -7.32023,-0.42192 -8.64046,-3.94086s0.41131,-7.4598 3.86577,-8.80467c3.45446,-1.34194 7.32599,0.42192 8.64622,3.94086c1.31735,3.51894 -0.41707,7.4598 -3.87153,8.80467z" stroke-width="5" stroke="#444444" fill="#fff"/>
 </g>
</svg>